<?xml version="1.0" standalone="no"?>
<!DOCTYPE svg PUBLIC "-//W3C//DTD SVG 20010904//EN"
 "http://www.w3.org/TR/2001/REC-SVG-20010904/DTD/svg10.dtd">
<svg version="1.0" xmlns="http://www.w3.org/2000/svg"
 width="191.000000pt" height="191.000000pt" viewBox="0 0 191.000000 191.000000"
 preserveAspectRatio="xMidYMid meet">
<metadata>
Created by potrace 1.14, written by Peter Selinger 2001-2017
</metadata>
<g transform="translate(0.000000,191.000000) scale(0.100000,-0.100000)"
fill="#000000" stroke="none">
<path d="M630 1218 c-179 -308 -337 -581 -352 -607 -15 -25 -31 -53 -35 -61
-5 -8 -21 -37 -37 -65 -16 -27 -61 -104 -99 -170 -38 -66 -78 -135 -89 -152
l-20 -33 194 0 193 0 26 48 c14 26 56 100 93 164 l68 118 189 0 c104 0 189 2
189 5 0 2 -36 66 -80 141 -44 75 -80 139 -80 142 0 3 -6 13 -14 21 -13 14 -3
35 81 181 52 91 96 166 97 168 2 1 10 -10 17 -25 17 -34 55 -100 125 -215 l52
-86 -18 -30 c-41 -67 -170 -293 -170 -297 0 -3 85 -5 189 -5 l188 0 94 -165
94 -164 193 -1 193 0 -16 28 c-8 15 -20 34 -25 42 -31 47 -130 223 -130 230 0
5 -7 13 -16 18 -9 5 -15 12 -14 16 2 7 -312 559 -350 616 -9 14 -30 50 -47 80
-26 48 -352 612 -357 617 -1 1 -148 -250 -326 -559z"/>
</g>
</svg>
